PathFileType	4	(X/Y/Z)	/Users/itak/Documents/Research/Walk-IL/dataset/trc/00505_00183.trc
DataRate	CameraRate	NumFrames	NumMarkers	Units	OrigDataRate	OrigDataStartFrame	OrigNumFrames
100.000000	100.000000	4	53	mm	100.000000	184	369
Frame#	Time	RPSI			LPSI			L3			STRN			T10			C7			CLAV			RBAK			LBAK			LSHO			LUPA			LAEL			LAOL			LWTS			LWPS			LFRA			LIFD			LHPS			LHTS			RSHO			RUPA			RAEL			RAOL			RWTS			RWPS			RFRA			RIFD			RHTS			RHPS			RBHD			LFHD			RFHD			LBHD			LHIP			RHIP			RASI			LASI			LKNE			LTHI			LANK			LTIP			LTOE			LMT1			LMT5			LHEE			RKNE			RTHI			RANK			RTIP			RTOE			RMT1			RMT5			RHEE			
		X1	Y1	Z1	X2	Y2	Z2	X3	Y3	Z3	X4	Y4	Z4	X5	Y5	Z5	X6	Y6	Z6	X7	Y7	Z7	X8	Y8	Z8	X9	Y9	Z9	X10	Y10	Z10	X11	Y11	Z11	X12	Y12	Z12	X13	Y13	Z13	X14	Y14	Z14	X15	Y15	Z15	X16	Y16	Z16	X17	Y17	Z17	X18	Y18	Z18	X19	Y19	Z19	X20	Y20	Z20	X21	Y21	Z21	X22	Y22	Z22	X23	Y23	Z23	X24	Y24	Z24	X25	Y25	Z25	X26	Y26	Z26	X27	Y27	Z27	X28	Y28	Z28	X29	Y29	Z29	X30	Y30	Z30	X31	Y31	Z31	X32	Y32	Z32	X33	Y33	Z33	X34	Y34	Z34	X35	Y35	Z35	X36	Y36	Z36	X37	Y37	Z37	X38	Y38	Z38	X39	Y39	Z39	X40	Y40	Z40	X41	Y41	Z41	X42	Y42	Z42	X43	Y43	Z43	X44	Y44	Z44	X45	Y45	Z45	X46	Y46	Z46	X47	Y47	Z47	X48	Y48	Z48	X49	Y49	Z49	X50	Y50	Z50	X51	Y51	Z51	X52	Y52	Z52	X53	Y53	Z53	

185	1.84	-130.0702667236328	961.2268676757812	99.91584777832031	-78.07084655761719	955.0125732421875	-12.91446971893311	-88.55736541748047	1031.4619140625	59.2738151550293	137.4617156982422	1153.983154296875	143.552001953125	-87.9713134765625	1135.055541992188	78.97652435302734	-21.69949913024902	1354.099487304688	121.3002700805664	115.7960586547852	1253.608032226562	144.10546875	-101.1647491455078	1232.346435546875	179.8988342285156	-32.54245376586914	1315.341552734375	26.9857063293457	83.47531890869141	1344.78125	-19.23952674865723	34.89657211303711	1252.401123046875	-99.4365234375	-34.28028869628906	1100.646484375	-157.6058654785156	-115.0083694458008	1071.255249023438	-105.9104080200195	131.9240264892578	980.3741455078125	-120.9721221923828	83.46353912353516	915.4808959960938	-167.7895050048828	9.603777885437012	1047.461303710938	-167.9697723388672	216.4510955810547	849.2026977539062	-133.0114288330078	126.9572906494141	886.0364379882812	-174.6424560546875	178.1819458007812	922.4124145507812	-152.0273284912109	-0.8182030916213989	1328.98095703125	277.9638061523438	-36.49742889404297	1259.133056640625	322.7677001953125	-56.75009918212891	1007.172790527344	338.1300964355469	-93.06559753417969	971.1649780273438	295.2319946289062	150.7149353027344	950.4181518554688	316.9213256835938	114.3818893432617	880.2877197265625	361.6196899414062	-25.56162071228027	967.2136840820312	344.8057556152344	270.9939575195312	846.0435180664062	328.4133605957031	228.4375305175781	899.7017211914062	348.0320129394531	182.9827423095703	849.48193359375	370.0835571289062	-29.20281219482422	1481.828369140625	203.5710144042969	128.6633453369141	1570.099243164062	118.5788345336914	78.73906707763672	1561.267333984375	235.2214050292969	20.92843246459961	1485.938720703125	52.56082534790039	74.56453704833984	870.4254760742188	-76.58003997802734	-113.6211090087891	846.5769653320312	252.0193176269531	11.66558170318604	873.703369140625	245.8192443847656	113.950065612793	897.2438354492188	32.14324188232422	134.0031280517578	462.891845703125	67.13871002197266	126.6595001220703	612.74072265625	2.001913547515869	-33.22069549560547	58.95969772338867	47.37918090820312	93.73410797119141	314.7240905761719	62.86241912841797	104.8040313720703	34.43483352661133	193.2203674316406	24.80376243591309	43.82564544677734	184.0179748535156	65.72503662109375	39.6269416809082	90.83769226074219	-103.901123046875	70.80520629882812	76.21305084228516	-144.6096038818359	461.9403076171875	204.8730163574219	-105.7928314208984	714.056640625	253.7314605712891	-483.550048828125	260.7523193359375	17.72698020935059	-226.6800842285156	361.1542358398438	162.5575866699219	-434.7528991699219	68.08280181884766	35.6384391784668	-417.2092895507812	122.6787948608398	-10.36317920684814	-485.2611999511719	152.8542633056641	49.93097686767578	-465.0876770019531	302.1045532226562	-35.73221588134766	
186	1.85	-114.7475509643555	952.6401977539062	109.6259536743164	-62.34444427490234	948.451904296875	-3.073807001113892	-72.47734069824219	1025.639282226562	67.94826507568359	153.930908203125	1148.600219726562	154.3027496337891	-70.55547332763672	1129.65966796875	86.43353271484375	-3.926848888397217	1349.270385742188	129.1168670654297	132.8340454101562	1248.28662109375	154.4325256347656	-84.94830322265625	1227.797241210938	186.5155944824219	-13.52320003509521	1308.719482421875	34.48400115966797	102.7539367675781	1338.743774414062	-11.12926769256592	57.76057815551758	1241.701904296875	-90.70431518554688	-4.301363468170166	1086.792602539062	-145.3197631835938	-86.56370544433594	1056.02880859375	-97.04512023925781	163.7923278808594	977.2299194335938	-95.87227630615234	121.7189865112305	908.2926025390625	-142.7923736572266	41.91094589233398	1035.7685546875	-151.3240356445312	255.0339050292969	850.3801879882812	-96.29326629638672	166.9142761230469	880.1192626953125	-144.8315734863281	214.7668304443359	920.6909790039062	-121.3878173828125	14.01989364624023	1324.133056640625	286.7240295410156	-23.75488471984863	1254.524780273438	330.0068054199219	-52.08757019042969	1002.355651855469	342.7374572753906	-88.0916748046875	968.7781372070312	297.6916198730469	153.0257873535156	935.3385009765625	328.6180725097656	111.1350021362305	866.6090698242188	370.5221557617188	-23.10335540771484	960.8500366210938	349.8960571289062	265.5335998535156	822.439453125	341.3297424316406	226.5005798339844	878.8198852539062	360.7460327148438	177.1771697998047	831.47998046875	380.3265686035156	-11.90649604797363	1476.348022460938	212.6412811279297	145.6223907470703	1566.1611328125	128.6990966796875	95.31663513183594	1556.425903320312	245.1218566894531	38.83105087280273	1481.530395507812	61.86585235595703	90.72330474853516	864.9146118164062	-67.91519165039062	-95.51450347900391	839.4046020507812	262.6751098632812	28.99214935302734	868.8682861328125	254.9140167236328	131.6085510253906	892.0426025390625	40.42259216308594	142.5183868408203	455.3129577636719	74.88742828369141	138.4481658935547	605.2618408203125	10.18541812896729	-35.16671371459961	58.44028472900391	48.68814086914062	98.41986846923828	308.8448486328125	69.35707855224609	104.122917175293	33.03678512573242	193.6528167724609	23.37117958068848	41.82601547241211	184.7361907958984	64.32855987548828	39.55913162231445	91.70310211181641	-106.223747253418	69.42813873291016	77.36445617675781	-113.8439559936523	454.52587890625	226.1148071289062	-83.83918762207031	707.7903442382812	266.8970031738281	-454.1153259277344	264.6771240234375	38.33383178710938	-195.6690368652344	357.7276000976562	185.2054595947266	-408.2796936035156	71.84910583496094	63.30456161499023	-390.1690368652344	123.9981079101562	15.17802143096924	-457.5905456542969	158.0245361328125	74.49119567871094	-434.7945251464844	304.1074829101562	-16.42620849609375	
187	1.86	-99.90518188476562	944.2092895507812	119.4165802001953	-46.95313262939453	942.4982299804688	6.917172431945801	-56.78798675537109	1020.363037109375	76.65680694580078	170.2136535644531	1143.411254882812	165.1746673583984	-53.31560897827148	1124.80712890625	93.90208435058594	14.04811668395996	1344.856689453125	136.8986511230469	149.8455047607422	1243.147216796875	164.8617401123047	-68.74262237548828	1223.81494140625	193.0660705566406	5.790448665618896	1302.4755859375	41.94198989868164	122.4597396850586	1332.886962890625	-2.918624639511108	81.56211090087891	1230.909057617188	-81.69012451171875	27.28245162963867	1072.784912109375	-132.2992553710938	-56.42287063598633	1040.4384765625	-87.82672882080078	195.7253112792969	974.7478637695312	-69.70357513427734	160.343994140625	902.0947875976562	-116.3999786376953	75.5418701171875	1024.115844726562	-133.5638732910156	292.9065856933594	853.0294799804688	-58.4559440612793	206.9154815673828	875.5806274414062	-113.6539459228516	251.0853271484375	920.125	-89.52790069580078	28.85911178588867	1319.593139648438	295.4505004882812	-11.14174842834473	1250.340576171875	337.1297607421875	-48.28812408447266	998.3579711914062	346.899169921875	-83.83084869384766	967.3064575195312	299.7253723144531	153.6327209472656	920.8356323242188	340.157470703125	106.1209564208984	853.8921508789062	378.8514709472656	-21.70821762084961	955.3796997070312	354.5141296386719	257.5675048828125	799.7402954101562	353.9724731445312	222.2471466064453	858.6278076171875	373.2853698730469	169.0460052490234	814.4775390625	389.9899291992188	5.456809997558594	1471.109497070312	221.6152038574219	162.6109466552734	1562.562133789062	138.7701873779297	111.8617477416992	1551.9482421875	254.9369049072266	56.92307662963867	1477.325073242188	71.06682586669922	106.4060668945312	860.16552734375	-59.32896423339844	-77.60865783691406	832.5355834960938	273.2721557617188	45.98958206176758	864.27587890625	263.9555358886719	149.0280914306641	887.3001098632812	48.59381866455078	150.5727081298828	448.6130676269531	82.27937316894531	149.7986602783203	598.7023315429688	18.14990425109863	-36.85651779174805	58.41006088256836	49.47014236450195	102.9048004150391	303.7020263671875	75.47052001953125	103.4019546508789	32.31807327270508	193.6583099365234	21.97488784790039	40.42181396484375	185.0740356445312	63.06009292602539	39.78075790405273	92.12861633300781	-108.2841415405273	68.68970489501953	77.94264221191406	-82.14407348632812	448.3184204101562	247.6852569580078	-61.93358993530273	702.1251831054688	280.2319030761719	-422.5184936523438	267.06298828125	60.02833938598633	-163.1629791259766	354.8851928710938	208.1819152832031	-377.9378051757812	74.67499542236328	91.49613189697266	-360.0472412109375	124.5697708129883	41.23847579956055	-426.6309814453125	161.7744293212891	99.98044586181641	-403.0458984375	304.6738586425781	3.949357748031616	
188	1.87	-85.34913635253906	936.5244140625	129.3071899414062	-31.73234558105469	937.4995727539062	17.07925796508789	-41.38118362426758	1015.957153320312	85.41110229492188	186.4017028808594	1138.70947265625	176.1828460693359	-36.27433776855469	1120.793823242188	101.446044921875	32.18650436401367	1341.074584960938	144.6923675537109	166.8203430175781	1238.477783203125	175.4069519042969	-52.55789184570312	1220.65380859375	199.5914611816406	25.37241554260254	1296.994018554688	49.40359878540039	142.6201934814453	1327.515869140625	5.550882816314697	106.2738418579102	1220.559326171875	-72.17332458496094	60.2599983215332	1059.2734375	-118.2973556518555	-24.75531387329102	1025.134521484375	-77.98085021972656	227.4290924072266	973.2925415039062	-42.54029846191406	198.8712768554688	897.3007202148438	-88.64678192138672	110.2235336303711	1013.089172363281	-114.5214462280273	329.5706481933594	857.3468017578125	-19.82081604003906	246.5301361083984	872.906494140625	-81.38526916503906	286.7125549316406	921.013427734375	-56.64118576049805	43.69120407104492	1315.61279296875	304.1083679199219	1.360755205154419	1246.865844726562	344.1461791992188	-45.18371963500977	995.5107421875	350.6355285644531	-80.13440704345703	967.0598754882812	301.3918762207031	152.6759948730469	907.4083251953125	351.4184265136719	99.61019897460938	842.6298828125	386.4759826660156	-21.17253875732422	951.1737670898438	358.65625	247.3782653808594	778.6612548828125	366.2039489746094	215.8687133789062	839.760986328125	385.5006103515625	158.9527893066406	799.0685424804688	398.9621276855469	22.88300514221191	1466.338500976562	230.5167694091797	179.6370849609375	1559.463989257812	148.7823181152344	128.3978271484375	1548.03515625	264.6570129394531	75.19480895996094	1473.502197265625	80.17140197753906	121.7069320678711	856.3585815429688	-50.6941032409668	-59.88655471801758	826.4342041015625	283.7678833007812	62.75090789794922	860.270263671875	272.9995727539062	166.2112731933594	883.274169921875	56.77072525024414	158.1746215820312	442.886474609375	89.26902770996094	160.8101043701172	593.2240600585938	25.94558906555176	-38.13694763183594	58.7962646484375	49.89603424072266	107.2167510986328	299.3040466308594	81.14950561523438	102.7505950927734	32.06583023071289	193.4418334960938	20.76272964477539	39.49628067016602	185.202392578125	62.07027053833008	40.14453887939453	92.29015350341797	-109.8964767456055	68.59239196777344	78.13755798339844	-49.50207138061523	443.7346496582031	269.466796875	-40.11896896362305	697.4713134765625	293.6293029785156	-388.9738159179688	267.7617492675781	82.61962890625	-129.2451477050781	352.765380859375	231.3089752197266	-343.7900695800781	76.45652008056641	120.1262512207031	-326.8342895507812	124.3026657104492	67.75042724609375	-392.5611267089844	163.9750823974609	126.2419967651367	-369.9908447265625	303.6552429199219	25.21887397766113	
